<svg version="1.1" xmlns="http://www.w3.org/2000/svg" viewBox="0 0 1040.8333333333333 708.333333333333" width="2081.6666666666665" height="1416.666666666666">
  <!-- svg-source:excalidraw -->
  
  <defs>
    <style class="style-fonts">
      @font-face {
        font-family: "Virgil";
        src: url("https://excalidraw.com/Virgil.woff2");
      }
      @font-face {
        font-family: "Cascadia";
        src: url("https://excalidraw.com/Cascadia.woff2");
      }
    </style>
    
  </defs>
  <rect x="0" y="0" width="1040.8333333333333" height="708.333333333333" fill="#fffce8"></rect><g transform="translate(258.3333333333335 135.83333333333326) rotate(0 345.544921875 41.628235294117644)"><text x="0" y="0" font-family="Cascadia, Segoe UI Emoji" font-size="69.38039215686275px" fill="#1e1e1e" text-anchor="start" style="white-space: pre;" direction="ltr" dominant-baseline="text-before-edge">..#...#...*...#..</text></g><g transform="translate(258.3333333333335 241.83115468409574) rotate(0 345.544921875 41.628235294117644)"><text x="0" y="0" font-family="Cascadia, Segoe UI Emoji" font-size="69.38039215686275px" fill="#1e1e1e" text-anchor="start" style="white-space: pre;" direction="ltr" dominant-baseline="text-before-edge">.#.#.#.#.*.*.#.#.</text></g><g transform="translate(258.3333333333335 347.8289760348582) rotate(0 345.544921875 41.628235294117644)"><text x="0" y="0" font-family="Cascadia, Segoe UI Emoji" font-size="69.38039215686275px" fill="#1e1e1e" text-anchor="start" style="white-space: pre;" direction="ltr" dominant-baseline="text-before-edge">#.A.#.B.*.C.*.D.#</text></g><g transform="translate(258.3333333333335 453.8267973856209) rotate(0 345.544921875 41.628235294117644)"><text x="0" y="0" font-family="Cascadia, Segoe UI Emoji" font-size="69.38039215686275px" fill="#1e1e1e" text-anchor="start" style="white-space: pre;" direction="ltr" dominant-baseline="text-before-edge">.#.#.#.#.*.*.#.#.</text></g><g transform="translate(258.3333333333335 559.8246187363834) rotate(0 345.544921875 41.628235294117644)"><text x="0" y="0" font-family="Cascadia, Segoe UI Emoji" font-size="69.38039215686275px" fill="#1e1e1e" text-anchor="start" style="white-space: pre;" direction="ltr" dominant-baseline="text-before-edge">..#...#...*...#..</text></g><g stroke-linecap="round" transform="translate(196.66666666666674 99.16666666666663) rotate(0 94.16666666666663 299.5833333333332)"><path d="M32 0 M32 0 C67.73 -0.74, 105.77 1.25, 156.33 0 M32 0 C64.71 -3.4, 95.91 -1.9, 156.33 0 M156.33 0 C180.47 0.81, 187.12 7.28, 188.33 32 M156.33 0 C181.66 -1.69, 184.4 9.29, 188.33 32 M188.33 32 C186.7 179.41, 186.35 328.92, 188.33 567.17 M188.33 32 C187.38 243.66, 186.97 453.9, 188.33 567.17 M188.33 567.17 C191.52 591.93, 175.37 596.78, 156.33 599.17 M188.33 567.17 C189.64 588.32, 177.6 597.47, 156.33 599.17 M156.33 599.17 C122.8 604.17, 97.57 601.96, 32 599.17 M156.33 599.17 C120.73 598.11, 82.92 599.4, 32 599.17 M32 599.17 C12.69 597.95, 1.48 591.32, 0 567.17 M32 599.17 C12.92 595.24, -0.65 586.01, 0 567.17 M0 567.17 C2.26 413.62, 2.08 258.09, 0 32 M0 567.17 C-3.65 422.16, -3.87 278.71, 0 32 M0 32 C-1.32 14.29, 10.42 2.6, 32 0 M0 32 C0.17 8.85, 10.75 -0.6, 32 0" stroke="#f08c00" stroke-width="1" fill="none"></path></g><g stroke-linecap="round" transform="translate(380 94.58333333333326) rotate(0 82.91666666666663 299.58333333333314)"><path d="M32 0 M32 0 C59.35 2.45, 87.48 -1.1, 133.83 0 M32 0 C64.6 -1.28, 99.53 -1.2, 133.83 0 M133.83 0 C154.41 2.6, 169.45 14.5, 165.83 32 M133.83 0 C158.82 3.09, 164.43 14.39, 165.83 32 M165.83 32 C164 235.54, 164.29 440.14, 165.83 567.17 M165.83 32 C168.3 189.25, 168.51 346.82, 165.83 567.17 M165.83 567.17 C166.65 590.44, 158.57 600.35, 133.83 599.17 M165.83 567.17 C167.36 583.93, 156.42 594.63, 133.83 599.17 M133.83 599.17 C100.64 602.49, 66.16 596.24, 32 599.17 M133.83 599.17 C102.69 598.51, 71.24 598.68, 32 599.17 M32 599.17 C8.67 601.12, 1.03 589.01, 0 567.17 M32 599.17 C14.99 602.43, 4.1 591.67, 0 567.17 M0 567.17 C0.45 389.36, -1.47 211.92, 0 32 M0 567.17 C1.18 406.77, 1.37 246.58, 0 32 M0 32 C-2.84 8.62, 8.59 -3.79, 32 0 M0 32 C-3.79 9.29, 9.55 2.96, 32 0" stroke="#f08c00" stroke-width="1" fill="none"></path></g><g stroke-linecap="round" transform="translate(546.25 90.41666666666674) rotate(0 82.91666666666663 299.58333333333314)"><path d="M32 0 M32 0 C62.11 0.43, 91.64 -3.53, 133.83 0 M32 0 C66.13 1.03, 98.07 0.23, 133.83 0 M133.83 0 C151.2 2.36, 165.34 9.49, 165.83 32 M133.83 0 C153.62 0.75, 167.31 7.37, 165.83 32 M165.83 32 C168.15 148.93, 166.98 267.46, 165.83 567.17 M165.83 32 C163.02 207.64, 163.33 381.55, 165.83 567.17 M165.83 567.17 C167.79 589.62, 154.91 596.25, 133.83 599.17 M165.83 567.17 C163.52 585.2, 152.18 595.47, 133.83 599.17 M133.83 599.17 C104.74 599.49, 73.12 599.17, 32 599.17 M133.83 599.17 C112.87 600.98, 87.5 598.93, 32 599.17 M32 599.17 C11.06 595.86, 0.58 591.2, 0 567.17 M32 599.17 C8.37 596.8, 4 591.86, 0 567.17 M0 567.17 C0.94 393.86, 2.25 220.73, 0 32 M0 567.17 C-1.43 377.54, -1.65 188.71, 0 32 M0 32 C-3.36 14.46, 14.34 0.23, 32 0 M0 32 C2.77 14.92, 9.58 -1.78, 32 0" stroke="#f08c00" stroke-width="1" fill="none"></path></g><g stroke-linecap="round" transform="translate(711.25 92.08333333333371) rotate(0 98.33333333333326 299.58333333333314)"><path d="M32 0 M32 0 C81.23 -3.09, 129.05 -2.59, 164.67 0 M32 0 C63.29 1.56, 96.35 -0.05, 164.67 0 M164.67 0 C183.67 -1.44, 197.85 6.76, 196.67 32 M164.67 0 C182.76 0.15, 197.97 13.12, 196.67 32 M196.67 32 C199.16 145.65, 200.46 257.6, 196.67 567.17 M196.67 32 C198.14 174.49, 197.81 317.2, 196.67 567.17 M196.67 567.17 C194.69 591.7, 188.35 597.36, 164.67 599.17 M196.67 567.17 C192.27 587.13, 182.12 596.89, 164.67 599.17 M164.67 599.17 C120.71 604.58, 85.09 604.45, 32 599.17 M164.67 599.17 C136.89 600.83, 111 600.72, 32 599.17 M32 599.17 C9.35 595.65, -0.34 587.14, 0 567.17 M32 599.17 C14.57 603.43, -2.45 589.53, 0 567.17 M0 567.17 C4.03 373.43, 2.55 180.47, 0 32 M0 567.17 C0.67 354.87, 0.82 143.94, 0 32 M0 32 C3.87 8.55, 7.11 3.95, 32 0 M0 32 C3.4 9.09, 10.14 2.44, 32 0" stroke="#f08c00" stroke-width="1" fill="none"></path></g><g stroke-linecap="round" transform="translate(10 10) rotate(0 510.41666666666663 110)"><path d="M32 0 M32 0 C363.36 -0.13, 693.27 -0.04, 988.83 0 M32 0 C411.92 5.95, 791.21 4.47, 988.83 0 M988.83 0 C1010.84 3.54, 1019.28 10.97, 1020.83 32 M988.83 0 C1009.25 -1.86, 1023.78 13.41, 1020.83 32 M1020.83 32 C1015.76 70.36, 1016.47 100.63, 1020.83 188 M1020.83 32 C1023.2 72.6, 1022.38 114.03, 1020.83 188 M1020.83 188 C1020.2 206.76, 1006.46 222.11, 988.83 220 M1020.83 188 C1020.5 211.07, 1008.41 217.56, 988.83 220 M988.83 220 C643.82 225.42, 297.79 226.83, 32 220 M988.83 220 C752.91 224.82, 516.93 223.61, 32 220 M32 220 C11.78 222.49, -2.65 208.41, 0 188 M32 220 C14.12 224.59, -1.25 212.05, 0 188 M0 188 C-2.75 132.5, 1.01 66.62, 0 32 M0 188 C-0.3 153.95, -1.73 125.39, 0 32 M0 32 C-2.8 11, 12.38 -0.13, 32 0 M0 32 C0.25 9.87, 11.03 -0.1, 32 0" stroke="#1e1e1e" stroke-width="1" fill="none"></path></g></svg>